<?xml version="1.0" standalone="no"?>
<!DOCTYPE svg PUBLIC "-//W3C//DTD SVG 20010904//EN"
 "http://www.w3.org/TR/2001/REC-SVG-20010904/DTD/svg10.dtd">
<svg version="1.0" xmlns="http://www.w3.org/2000/svg"
 width="512.000000pt" height="512.000000pt" viewBox="0 0 512.000000 512.000000"
 preserveAspectRatio="xMidYMid meet">
<metadata>
Created by potrace 1.14, written by Peter Selinger 2001-2017
</metadata>
<g transform="translate(0.000000,512.000000) scale(0.100000,-0.100000)"
fill="#000000" stroke="none">
<path d="M690 3525 c0 -6 -15 -11 -32 -11 -42 -1 -222 -14 -268 -19 -19 -3
-60 -7 -90 -10 -64 -7 -192 -32 -224 -45 -45 -17 -57 -59 -57 -191 0 -117 12
-150 72 -198 54 -43 122 -125 112 -135 -4 -3 -1 -6 6 -6 7 0 9 -4 6 -10 -3 -5
-1 -10 5 -10 6 0 9 -4 5 -9 -3 -5 -1 -12 5 -16 6 -4 8 -11 5 -16 -4 -5 -1 -9
5 -9 7 0 10 -6 7 -14 -3 -8 -3 -17 1 -21 3 -3 7 -20 8 -38 1 -18 3 -32 4 -32
3 0 11 -71 13 -115 1 -19 5 -37 8 -40 4 -3 9 -30 12 -60 3 -30 8 -62 11 -70 3
-8 8 -33 10 -55 2 -22 5 -40 6 -40 2 0 4 -9 6 -20 1 -11 5 -29 8 -40 3 -11 9
-36 14 -55 12 -48 12 -48 16 -62 3 -7 14 -43 25 -80 59 -188 139 -305 251
-362 50 -26 155 -61 216 -71 91 -15 149 -22 156 -19 4 3 9 1 12 -4 5 -9 351
-8 441 2 82 8 142 18 210 32 22 4 42 9 45 9 74 15 230 80 230 96 0 5 4 9 10 9
13 0 76 63 116 115 61 79 134 236 170 365 11 40 35 138 40 160 3 13 12 55 20
93 8 38 17 74 21 80 4 6 1 7 -6 2 -10 -6 -11 -3 -2 13 6 11 13 40 15 64 3 24
6 44 7 46 1 1 2 10 3 20 1 9 4 22 8 28 4 6 9 25 10 43 1 17 6 31 11 31 4 0 6
4 3 8 -9 14 51 78 91 97 52 25 137 23 196 -5 26 -12 44 -26 41 -31 -3 -5 -1
-9 4 -9 15 0 45 -51 47 -81 1 -14 5 -31 8 -36 3 -5 7 -26 9 -46 1 -21 5 -37 8
-37 3 0 6 -17 8 -38 3 -37 9 -77 12 -77 1 0 4 -11 6 -25 9 -66 14 -90 29 -150
9 -36 19 -76 21 -88 24 -123 149 -404 187 -420 4 -2 7 -8 7 -14 0 -14 89 -99
135 -128 67 -43 139 -70 235 -89 30 -6 66 -14 80 -16 26 -6 61 -10 190 -24 41
-4 149 -6 240 -4 225 5 260 7 260 16 0 4 12 7 28 6 40 -2 177 38 248 72 62 30
168 124 158 140 -3 5 -1 9 4 9 9 0 62 101 62 119 0 6 4 11 8 11 4 0 14 21 22
48 7 26 14 50 15 55 2 4 4 9 5 12 4 7 5 15 14 58 5 20 12 40 17 43 5 3 7 10 4
15 -4 5 -3 15 2 22 4 6 8 19 8 27 1 8 6 40 13 70 12 59 19 94 28 150 3 19 7
46 10 60 3 14 7 45 9 70 3 43 6 62 20 140 22 119 67 193 166 273 37 30 49 48
59 85 11 43 14 163 5 222 -2 14 -4 31 -4 37 -1 19 -44 43 -103 58 -63 16 -77
18 -253 40 -46 6 -224 17 -272 18 -18 0 -33 5 -33 11 0 7 -3 7 -8 1 -7 -10
-72 -15 -72 -6 0 8 -498 6 -506 -2 -4 -3 -15 -2 -25 3 -11 7 -20 7 -24 0 -4
-6 -15 -6 -30 0 -14 5 -25 6 -25 2 0 -4 -26 -8 -57 -9 -73 -1 -224 -11 -283
-17 -25 -3 -74 -8 -109 -11 -36 -3 -79 -8 -95 -10 -17 -3 -47 -7 -66 -9 -19
-3 -60 -11 -90 -20 -95 -25 -164 -36 -330 -51 -72 -6 -243 -7 -305 0 -22 2
-66 7 -98 10 -73 7 -144 21 -252 48 -33 9 -85 18 -115 21 -30 3 -75 8 -100 10
-130 14 -250 23 -357 28 -40 1 -73 6 -73 11 0 4 -6 5 -12 0 -17 -10 -68 -11
-68 -1 0 4 -11 3 -25 -2 -14 -5 -25 -6 -25 -2 0 9 -472 8 -487 -1 -7 -4 -14
-3 -18 3 -4 6 -11 7 -17 4 -17 -11 -52 -10 -60 1 -5 7 -8 7 -8 0z"/>
</g>
</svg>
